<svg width="853" height="969" viewBox="0 0 853 969" fill="none" xmlns="http://www.w3.org/2000/svg">
<g id="Group 1">
<circle id="Ellipse 9" cx="803.322" cy="60.9537" r="1.92485" fill="#161616"/>
<path id="Polygon 10" d="M802.135 1.98964C802.514 1.81854 802.937 2.12219 802.895 2.53622L802.607 5.41008C802.566 5.82411 802.092 6.03799 801.754 5.79507L799.409 4.10888C799.071 3.86595 799.123 3.34842 799.502 3.17731L802.135 1.98964Z" fill="white"/>
<path id="Polygon 11" d="M668.892 58.3951C669.167 58.3937 669.412 58.5697 669.498 58.8309L670.428 61.6456C670.514 61.9068 670.423 62.1939 670.201 62.3567L667.811 64.1108C667.589 64.2736 667.288 64.2751 667.065 64.1145L664.658 62.3839C664.435 62.2233 664.34 61.9371 664.424 61.675L665.326 58.8514C665.41 58.5893 665.653 58.4109 665.928 58.4096L668.892 58.3951Z" fill="white"/>
<g id="Vector 2" filter="url(#filter0_d)">
<path d="M864.918 16.0405C219.022 258.572 -685.232 775.332 864.918 902.115V16.0405Z" fill="white"/>
<path d="M864.918 16.0405C219.022 258.572 -685.232 775.332 864.918 902.115V16.0405Z" stroke="#A1AAFF" stroke-width="3"/>
</g>
<path id="Vector 3" d="M1043.93 78.2774C398.032 320.809 -506.222 714.378 1043.93 841.162V78.2774Z" fill="#707EFF"/>
<g id="Vector 4" filter="url(#filter1_d)">
<path d="M1214.6 125.757C568.703 337.896 -335.552 682.144 1214.6 793.04V125.757Z" fill="white"/>
<path d="M1214.6 125.757C568.703 337.896 -335.552 682.144 1214.6 793.04V125.757Z" stroke="url(#paint0_linear)" stroke-width="3"/>
</g>
<path id="Vector 5" d="M1078.58 233.549C665.086 387.758 86.2005 638 1078.58 718.613V233.549Z" fill="#707EFF"/>
<circle id="Ellipse 3" r="2.56647" transform="matrix(-1 0 0 1 252.172 630.069)" fill="white"/>
<circle id="Ellipse 10" r="2.56647" transform="matrix(-1 0 0 1 815.513 565.907)" fill="white"/>
<circle id="Ellipse 4" cx="175.819" cy="678.191" r="1.92485" fill="#161616"/>
<circle id="Ellipse 12" cx="436.316" cy="768.017" r="1.92485" fill="#161616"/>
<circle id="Ellipse 6" cx="508.177" cy="100.734" r="22.4566" fill="#979797"/>
<circle id="Ellipse 7" cx="307.648" cy="432.747" r="32.7225" transform="rotate(18.3001 307.648 432.747)" fill="white"/>
<path id="Ellipse 8" d="M317.923 401.68C300.764 396.005 282.423 404.807 276.58 422.472C273.643 431.355 273.734 437.826 277.448 446.412C278.858 442.148 328.691 407.944 328.691 407.944C328.691 407.944 327.06 404.702 317.923 401.68Z" fill="#707EFF"/>
<circle id="Ellipse 5" cx="178.386" cy="756.468" r="4.49133" fill="#161616"/>
<circle id="Ellipse 16" cx="428.617" cy="566.549" r="3.20809" fill="#161616"/>
<circle id="Ellipse 11" cx="580.039" cy="232.907" r="4.49133" fill="#161616"/>
<rect id="Rectangle 2" x="456.207" y="367.334" width="1.94117" height="1.94117" rx="0.265094" transform="rotate(-24.4476 456.207 367.334)" fill="white"/>
<rect id="Rectangle 6" x="72.519" y="754.871" width="3.89396" height="3.89396" rx="0.531777" transform="rotate(-24.4476 72.519 754.871)" fill="white"/>
<rect id="Rectangle 8" x="761.617" y="965.322" width="3.89396" height="3.89396" rx="0.531777" transform="rotate(-24.4476 761.617 965.322)" fill="white"/>
<rect id="Rectangle 3" x="213.373" y="425.434" width="3.37824" height="3.37824" rx="0.481997" transform="rotate(35.3063 213.373 425.434)" fill="#161616"/>
<rect id="Rectangle 4" x="309.3" y="723.656" width="4.02097" height="4.02097" rx="0.619105" transform="rotate(30.4542 309.3 723.656)" fill="#161616"/>
<rect id="Rectangle 5" x="725.687" y="865.282" width="4.02097" height="4.02097" rx="0.619105" transform="rotate(-24.4476 725.687 865.282)" fill="#161616"/>
<rect id="Rectangle 7" x="764.183" y="309.641" width="4.02097" height="4.02097" rx="0.619105" transform="rotate(-24.4476 764.183 309.641)" fill="#161616"/>
<path id="Polygon 7" d="M732.841 403.643C733.22 403.472 733.642 403.775 733.601 404.189L733.313 407.063C733.271 407.477 732.797 407.691 732.459 407.448L730.114 405.762C729.777 405.519 729.829 405.002 730.208 404.83L732.841 403.643Z" fill="white"/>
<path id="Polygon 2" d="M273.961 538.485C274.091 538.728 274.049 539.026 273.859 539.225L271.806 541.363C271.616 541.562 271.319 541.615 271.071 541.495L268.403 540.203C268.156 540.084 268.013 539.818 268.051 539.545L268.455 536.609C268.492 536.336 268.701 536.119 268.972 536.07L271.889 535.547C272.16 535.498 272.431 535.629 272.561 535.872L273.961 538.485Z" fill="white"/>
<path id="Polygon 6" d="M577.418 525.541C577.507 525.644 577.52 525.793 577.449 525.91L576.686 527.167C576.615 527.283 576.477 527.341 576.344 527.31L574.913 526.973C574.78 526.942 574.683 526.828 574.671 526.692L574.55 525.227C574.538 525.091 574.616 524.963 574.742 524.91L576.098 524.342C576.224 524.289 576.369 524.323 576.458 524.427L577.418 525.541Z" fill="white"/>
<path id="Polygon 8" d="M431.493 199.551C431.768 199.55 432.013 199.726 432.099 199.987L433.029 202.802C433.115 203.063 433.024 203.35 432.802 203.513L430.412 205.267C430.191 205.43 429.889 205.431 429.666 205.271L427.259 203.54C427.036 203.379 426.941 203.093 427.025 202.831L427.927 200.007C428.011 199.745 428.254 199.567 428.529 199.566L431.493 199.551Z" fill="white"/>
<path id="Polygon 9" d="M638.621 629.409C638.729 629.577 638.716 629.794 638.59 629.948L637.235 631.607C637.109 631.761 636.899 631.816 636.713 631.744L634.717 630.968C634.532 630.896 634.414 630.712 634.425 630.514L634.547 628.375C634.558 628.177 634.696 628.008 634.888 627.958L636.96 627.412C637.152 627.362 637.355 627.441 637.462 627.608L638.621 629.409Z" fill="white"/>
<path id="Polygon 5" d="M659.909 759.042C660.184 759.041 660.429 759.217 660.515 759.478L661.445 762.293C661.531 762.554 661.44 762.841 661.218 763.004L658.828 764.758C658.607 764.921 658.305 764.922 658.082 764.762L655.675 763.031C655.452 762.871 655.357 762.584 655.441 762.322L656.343 759.499C656.427 759.237 656.67 759.058 656.945 759.057L659.909 759.042Z" fill="white"/>
<path id="Polygon 12" d="M358.349 889.932C358.624 889.931 358.868 890.107 358.955 890.368L359.885 893.183C359.971 893.444 359.879 893.731 359.657 893.894L357.268 895.648C357.046 895.811 356.745 895.813 356.521 895.652L354.115 893.921C353.891 893.761 353.797 893.475 353.88 893.212L354.783 890.389C354.866 890.127 355.109 889.948 355.384 889.947L358.349 889.932Z" fill="white"/>
<path id="Polygon 4" d="M53.5228 529.809C53.7373 529.807 53.9282 529.945 53.9955 530.148L54.7206 532.343C54.7879 532.547 54.7164 532.771 54.5434 532.898L52.6799 534.266C52.5069 534.393 52.2719 534.394 52.0977 534.269L50.2209 532.919C50.0467 532.794 49.9729 532.571 50.0382 532.366L50.7418 530.164C50.8071 529.96 50.9966 529.821 51.2111 529.82L53.5228 529.809Z" fill="#161616"/>
<path id="Polygon 3" d="M82.703 634.574C82.9701 634.453 83.2675 634.667 83.2383 634.959L82.8769 638.567C82.8477 638.859 82.5138 639.01 82.2758 638.839L79.3313 636.721C79.0934 636.55 79.1299 636.186 79.397 636.065L82.703 634.574Z" fill="#161616"/>
</g>
<defs>
<filter id="filter0_d" x="0.499146" y="6.87497" width="872.919" height="903.868" filterUnits="userSpaceOnUse" color-interpolation-filters="sRGB">
<feFlood flood-opacity="0" result="BackgroundImageFix"/>
<feColorMatrix in="SourceAlpha" type="matrix" values="0 0 0 0 0 0 0 0 0 0 0 0 0 0 0 0 0 0 127 0"/>
<feOffset/>
<feGaussianBlur stdDeviation="3.5"/>
<feColorMatrix type="matrix" values="0 0 0 0 1 0 0 0 0 0.788235 0 0 0 0 0.47451 0 0 0 0.63 0"/>
<feBlend mode="normal" in2="BackgroundImageFix" result="effect1_dropShadow"/>
<feBlend mode="normal" in="SourceGraphic" in2="effect1_dropShadow" result="shape"/>
</filter>
<filter id="filter1_d" x="347.177" y="113.686" width="878.922" height="690.966" filterUnits="userSpaceOnUse" color-interpolation-filters="sRGB">
<feFlood flood-opacity="0" result="BackgroundImageFix"/>
<feColorMatrix in="SourceAlpha" type="matrix" values="0 0 0 0 0 0 0 0 0 0 0 0 0 0 0 0 0 0 127 0"/>
<feOffset/>
<feGaussianBlur stdDeviation="5"/>
<feColorMatrix type="matrix" values="0 0 0 0 0.4375 0 0 0 0 0.49375 0 0 0 0 1 0 0 0 1 0"/>
<feBlend mode="normal" in2="BackgroundImageFix" result="effect1_dropShadow"/>
<feBlend mode="normal" in="SourceGraphic" in2="effect1_dropShadow" result="shape"/>
</filter>
<linearGradient id="paint0_linear" x1="715.589" y1="281.5" x2="853.589" y2="760.5" gradientUnits="userSpaceOnUse">
<stop stop-color="#707EFF"/>
<stop offset="1" stop-color="#707EFF"/>
</linearGradient>
</defs>
</svg>
