<svg width="65" height="38" viewBox="0 0 65 38" fill="none" xmlns="http://www.w3.org/2000/svg">
<path d="M53.9383 21.7903C52.8875 20.4603 53.1881 19.8686 53.9383 18.6797C53.9519 18.6661 62.627 6.65271 63.5207 2.57857L63.5262 2.57586C63.9703 1.09114 63.5262 0 61.3784 0H54.2715C52.4622 0 51.628 0.936428 51.1811 1.98414C51.1811 1.98414 47.5627 10.6644 42.4438 16.2911C40.7916 17.917 40.0278 18.4381 39.1259 18.4381C38.6818 18.4381 37.9911 17.917 37.9911 16.4323V2.57586C37.9911 0.795285 37.4846 0 35.9869 0H24.8119C23.6771 0 23.0027 0.830572 23.0027 1.60414C23.0027 3.29243 25.5621 3.68057 25.8276 8.43057V18.7367C25.8276 20.995 25.4186 21.4103 24.5113 21.4103C22.0953 21.4103 16.2316 12.6947 12.7567 2.71971C12.0552 0.784428 11.37 0.00271409 9.54721 0.00271409H2.43758C0.408973 0.00271409 0 0.939142 0 1.98686C0 3.838 2.41592 13.0421 11.2346 25.2021C17.1118 33.5024 25.3888 38 32.9182 38C37.444 38 37.9965 37.0011 37.9965 35.283C37.9965 27.3519 37.5876 26.6027 39.8545 26.6027C40.9054 26.6027 42.7146 27.1239 46.9398 31.1274C51.7689 35.8747 52.5624 38 55.2655 38H62.3724C64.3983 38 65.4248 37.0011 64.8343 35.0306C63.4828 30.8859 54.35 22.3603 53.9383 21.7903V21.7903Z" fill="#3090FC"/>
</svg>
